<svg width="30" height="30" viewBox="0 0 30 30" fill="none" xmlns="http://www.w3.org/2000/svg">
<g id="fi-rr-shopping-bag-add" clip-path="url(#clip0_1_827)">
<path id="Vector" d="M26.0406 7.28813H22.3966C22.3966 5.35527 21.6288 3.50156 20.2621 2.13482C18.8953 0.768073 17.0416 0.000244141 15.1087 0.000244141C13.1759 0.000244141 11.3222 0.768073 9.95542 2.13482C8.58868 3.50156 7.82085 5.35527 7.82085 7.28813H4.1769C3.21047 7.28813 2.28362 7.67205 1.60025 8.35542C0.916873 9.03879 0.532959 9.96564 0.532959 10.9321L0.532959 23.0786C0.534888 24.6887 1.17536 26.2323 2.3139 27.3709C3.45244 28.5094 4.99607 29.1499 6.6062 29.1518H17.538C17.8602 29.1518 18.1691 29.0238 18.3969 28.796C18.6247 28.5683 18.7527 28.2593 18.7527 27.9372C18.7527 27.615 18.6247 27.3061 18.3969 27.0783C18.1691 26.8505 17.8602 26.7225 17.538 26.7225H6.6062C5.63977 26.7225 4.71291 26.3386 4.02954 25.6552C3.34617 24.9718 2.96226 24.045 2.96226 23.0786V10.9321C2.96226 10.6099 3.09023 10.301 3.31802 10.0732C3.54581 9.8454 3.85476 9.71743 4.1769 9.71743H7.82085V12.1467C7.82085 12.4689 7.94882 12.7778 8.17661 13.0056C8.4044 13.2334 8.71335 13.3614 9.0355 13.3614C9.35764 13.3614 9.66659 13.2334 9.89438 13.0056C10.1222 12.7778 10.2501 12.4689 10.2501 12.1467V9.71743H19.9673V12.1467C19.9673 12.4689 20.0953 12.7778 20.3231 13.0056C20.5509 13.2334 20.8598 13.3614 21.182 13.3614C21.5041 13.3614 21.8131 13.2334 22.0409 13.0056C22.2687 12.7778 22.3966 12.4689 22.3966 12.1467V9.71743H26.0406C26.3627 9.71743 26.6717 9.8454 26.8995 10.0732C27.1273 10.301 27.2552 10.6099 27.2552 10.9321V17.0053C27.2552 17.3275 27.3832 17.6364 27.611 17.8642C27.8388 18.092 28.1477 18.22 28.4699 18.22C28.792 18.22 29.101 18.092 29.3288 17.8642C29.5565 17.6364 29.6845 17.3275 29.6845 17.0053V10.9321C29.6845 9.96564 29.3006 9.03879 28.6172 8.35542C27.9339 7.67205 27.007 7.28813 26.0406 7.28813ZM10.2501 7.28813C10.2501 5.99955 10.762 4.76375 11.6732 3.85259C12.5844 2.94143 13.8202 2.42954 15.1087 2.42954C16.3973 2.42954 17.6331 2.94143 18.5443 3.85259C19.4554 4.76375 19.9673 5.99955 19.9673 7.28813H10.2501Z" fill="black"/>
</g>
<defs>
<clipPath id="clip0_1_827">
<rect width="29.1516" height="29.1516" fill="white" transform="translate(0.532959 0.000244141)"/>
</clipPath>
</defs>
</svg>
